<mxfile host="65bd71144e">
    <diagram id="rn_sO2JRNQe2zv5TbqgG" name="Página-1">
        <mxGraphModel dx="489" dy="548" grid="1" gridSize="10" guides="1" tooltips="1" connect="1" arrows="1" fold="1" page="1" pageScale="1" pageWidth="827" pageHeight="1169" math="0" shadow="0">
            <root>
                <mxCell id="0"/>
                <mxCell id="1" parent="0"/>
                <mxCell id="3" value="Topologica" style="swimlane;" vertex="1" parent="1">
                    <mxGeometry x="170" y="150" width="170" height="60" as="geometry"/>
                </mxCell>
                <mxCell id="5" value="-v&lt;br&gt;-tarea" style="rounded=0;whiteSpace=wrap;html=1;align=left;" vertex="1" parent="1">
                    <mxGeometry x="170" y="170" width="170" height="40" as="geometry"/>
                </mxCell>
                <mxCell id="6" value="añadir&lt;br&gt;ordenar&lt;br&gt;ordenacion_topologica" style="rounded=0;whiteSpace=wrap;html=1;align=left;" vertex="1" parent="1">
                    <mxGeometry x="170" y="210" width="170" height="60" as="geometry"/>
                </mxCell>
            </root>
        </mxGraphModel>
    </diagram>
</mxfile>